<?xml version="1.0" encoding="iso-8859-1"?>
<!-- Uploaded to: SVG Repo, www.svgrepo.com, Generator: SVG Repo Mixer Tools -->
<svg height="800px" width="800px" version="1.1" id="Layer_1" xmlns="http://www.w3.org/2000/svg" xmlns:xlink="http://www.w3.org/1999/xlink" 
	 viewBox="0 0 512 512" xml:space="preserve">
<circle style="fill:#ECE5DD;" cx="256" cy="256" r="256"/>
<path style="fill:#D9CBBD;" d="M256,0c-11.317,0-22.461,0.744-33.391,2.167C348.216,18.53,445.217,125.933,445.217,256
	s-97.002,237.47-222.609,253.833C233.539,511.256,244.683,512,256,512c141.385,0,256-114.616,256-256S397.385,0,256,0z"/>
<path style="fill:#C6C5CB;" d="M400.264,166.4H149.789c-6.683,0-12.119,5.566-12.119,12.408v221.165
	c0,6.842,5.436,12.408,12.119,12.408h1.02h248.436h1.02c6.683,0,12.119-5.566,12.119-12.408V178.808
	C412.383,171.966,406.946,166.4,400.264,166.4z"/>
<path style="fill:#C2FA3A;" d="M144.139,97.969l15.033,14.258c16.129,15.299,38.786,39.975,55.126,70.654l4.557,8.554
	l-73.597,30.329L144.139,97.969z"/>
<path style="fill:#9CDD04;" d="M145.258,221.762l73.098-31.328l3.489,8.23c8.261,19.484,12.45,38.775,12.45,57.336
	c0,5.935-0.441,12.052-1.31,18.184l-0.741,5.231l-88.105,31.851L145.258,221.762z"/>
<path style="fill:#A5E276;" d="M70.564,191.445l4.561-8.556c16.338-30.647,38.977-55.327,55.09-70.635l13.924-14.205l1.119,123.711
	L70.564,191.445z"/>
<path style="fill:#5FAC24;" d="M57.141,279.414l-0.74-5.235c-0.866-6.124-1.306-12.24-1.306-18.179
	c0-18.544,4.197-37.833,12.474-57.33l3.493-8.225l74.197,31.317l-1.119,89.504L57.141,279.414z"/>
<path style="fill:#48811B;" d="M130.221,399.774c-19.932-18.905-55.442-57.673-69.309-104.913l-4.005-17.105l87.233,33.51v102.765
	L130.221,399.774z"/>
<path style="fill:#79AB03;" d="M144.139,311.266l89.36-33.509l-5.037,17.116c-13.882,47.166-49.368,85.953-69.286,104.873
	l-15.037,14.286L144.139,311.266L144.139,311.266z"/>
</svg>